<?xml version="1.0" encoding="iso-8859-1"?>
<!-- Generator: Adobe Illustrator 19.0.0, SVG Export Plug-In . SVG Version: 6.00 Build 0)  -->
<svg version="1.1" id="Capa_1" xmlns="http://www.w3.org/2000/svg" xmlns:xlink="http://www.w3.org/1999/xlink" x="0px" y="0px"
	 viewBox="0 0 453.44 453.44" style="enable-background:new 0 0 453.44 453.44;" xml:space="preserve">
<g>
	<g>
		<path d="M397.76,389.722h-0.16H55.68C25.001,389.897,0.175,414.723,0,445.402c0,4.418,3.582,8,8,8h437.44c4.418,0,8-3.582,8-8
			C453.265,414.723,428.439,389.897,397.76,389.722z"/>
	</g>
</g>
<g>
	<g>
		<path d="M452.652,145.165c-0.214-2.265-1.382-4.332-3.212-5.683L230.92,1.242c-2.584-1.605-5.856-1.605-8.44,0L4.2,139.122
			c-3.746,2.343-4.883,7.279-2.541,11.025c1.349,2.157,3.644,3.544,6.181,3.735h437.6
			C449.839,153.466,453.068,149.564,452.652,145.165z"/>
	</g>
</g>
<g>
	<g>
		<path d="M38.64,165.842c7.231,18.842,24.04,32.335,44,35.32v176.56h63.64v-176h48.6v176h63.52v-176H307v176h63.64v-176.56
			c19.96-2.985,36.769-16.478,44-35.32H38.64z"/>
	</g>
</g>
<g>
</g>
<g>
</g>
<g>
</g>
<g>
</g>
<g>
</g>
<g>
</g>
<g>
</g>
<g>
</g>
<g>
</g>
<g>
</g>
<g>
</g>
<g>
</g>
<g>
</g>
<g>
</g>
<g>
</g>
</svg>
